<?xml version="1.0" encoding="UTF-8"?>
<!DOCTYPE svg PUBLIC "-//W3C//DTD SVG 1.1//EN" "http://www.w3.org/Graphics/SVG/1.1/DTD/svg11.dtd">
<svg version="1.1" xmlns="http://www.w3.org/2000/svg" xmlns:xlink="http://www.w3.org/1999/xlink" width="1600" height="1600"  xml:space="preserve" id="iconCanvas">
    <!-- Generated by PaintCode (www.paintcodeapp.com) -->
    <circle id="iconCanvas-bc7052324baec188b9cfaec612a0b4afCanvasoval3" stroke="none" fill="rgb(34, 40, 49)" cx="800" cy="800" r="800" />
    <path id="iconCanvas-bc7052324baec188b9cfaec612a0b4afCanvasbezier" stroke="none" fill="rgb(234, 82, 111)" d="M 1136,266 L 581.33,463.46 C 557.78,471.23 538.67,496.66 538.67,520.21 L 538.67,605.54 C 538.67,629.09 557.78,641.89 581.33,634.13 L 1136,436.67 C 1159.55,436.67 1178.67,417.55 1178.67,394 L 1178.67,308.67 C 1178.67,285.11 1159.55,266 1136,266 Z M 1136,266" />
    <ellipse id="iconCanvas-bc7052324baec188b9cfaec612a0b4afCanvasoval" stroke="none" fill="rgb(238, 238, 238)" cx="0" cy="-0" rx="160.95" ry="118.75"  transform="translate(1029.35, 1027.75) rotate(-33.55)" />
    <ellipse id="iconCanvas-bc7052324baec188b9cfaec612a0b4afCanvasoval2" stroke="none" fill="rgb(238, 238, 238)" cx="0" cy="-0" rx="160.95" ry="118.75"  transform="translate(474.65, 1155.75) rotate(-33.55)" />
    <path id="iconCanvas-bc7052324baec188b9cfaec612a0b4afCanvasbezier2" stroke="none" fill="rgb(255, 0, 0)" fill-opacity="0" d="M 896,725.33 L 896,85.33 896,725.33 Z M 896,725.33" />
    <path id="iconCanvas-bc7052324baec188b9cfaec612a0b4afCanvasbezier3" stroke="none" fill="rgb(255, 0, 0)" fill-opacity="0" d="M 341.33,856.66 L 341.33,256 341.33,856.66 Z M 341.33,856.66" />
</svg>
